<svg width="66" height="65" viewBox="0 0 66 65" fill="none" xmlns="http://www.w3.org/2000/svg">
<path d="M19.5154 48.3208H15.4316C14.1667 48.3208 12.9535 48.8157 12.0591 49.6966C11.1646 50.5775 10.6621 51.7723 10.6621 53.0181V57.8296H24.2914V53.0181C24.2914 52.4007 24.1678 51.7894 23.9277 51.219C23.6876 50.6487 23.3357 50.1306 22.8921 49.6944C22.4486 49.2581 21.922 48.9122 21.3426 48.6765C20.7632 48.4409 20.1423 48.32 19.5154 48.3208Z" fill="#EF3F42"/>
<path d="M22.1457 42.8757C22.2185 41.9656 22.0157 41.0547 21.5629 40.2581C21.1101 39.4615 20.4276 38.815 19.6017 38.4004C18.7758 37.9858 17.8437 37.8217 16.9231 37.9289C16.0025 38.036 15.1349 38.4096 14.4299 39.0024C13.7249 39.5951 13.2142 40.3805 12.9624 41.2591C12.7106 42.1377 12.729 43.0701 13.0152 43.9384C13.3014 44.8067 13.8427 45.5719 14.5705 46.1373C15.2984 46.7027 16.1801 47.0428 17.1042 47.1147C17.7179 47.1626 18.3351 47.0909 18.9207 46.9038C19.5062 46.7166 20.0486 46.4177 20.5168 46.024C20.985 45.6304 21.3698 45.1497 21.6493 44.6095C21.9288 44.0693 22.0975 43.4801 22.1457 42.8757Z" fill="#EF3F42"/>
<path d="M35.0418 48.3208H30.958C29.693 48.3208 28.4799 48.8157 27.5854 49.6966C26.691 50.5775 26.1885 51.7723 26.1885 53.0181V57.8296H39.8177V53.0181C39.8177 52.4007 39.6942 51.7894 39.4541 51.219C39.214 50.6487 38.8621 50.1306 38.4185 49.6944C37.9749 49.2581 37.4484 48.9122 36.869 48.6765C36.2895 48.4409 35.6686 48.32 35.0418 48.3208Z" fill="#EF3F42"/>
<path d="M35.214 46.5848C37.4947 45.3789 38.3509 42.5805 37.1265 40.3344C35.9021 38.0883 33.0606 37.245 30.7799 38.4508C28.4992 39.6567 27.643 42.4551 28.8674 44.7012C30.0918 46.9474 32.9333 47.7907 35.214 46.5848Z" fill="#EF3F42"/>
<path d="M50.5687 48.3208H46.485C45.8581 48.32 45.2372 48.4409 44.6578 48.6765C44.0784 48.9122 43.5518 49.2581 43.1082 49.6944C42.6647 50.1306 42.3128 50.6487 42.0727 51.219C41.8326 51.7894 41.709 52.4007 41.709 53.0181V57.8296H55.3434V53.0181C55.3434 52.4008 55.2199 51.7896 54.9798 51.2193C54.7398 50.6491 54.3881 50.1311 53.9446 49.6948C53.5012 49.2586 52.9748 48.9127 52.3955 48.6769C51.8163 48.4411 51.1955 48.3201 50.5687 48.3208Z" fill="#EF3F42"/>
<path d="M53.1984 42.8758C53.2713 41.9657 53.0685 41.0546 52.6156 40.258C52.1627 39.4614 51.4802 38.8149 50.6542 38.4003C49.8283 37.9857 48.896 37.8217 47.9754 37.9289C47.0548 38.0362 46.1871 38.4098 45.4822 39.0027C44.7772 39.5956 44.2666 40.3811 44.0149 41.2598C43.7632 42.1385 43.7818 43.071 44.0682 43.9393C44.3547 44.8076 44.8961 45.5728 45.6241 46.138C46.3522 46.7032 47.234 47.0432 48.1582 47.1148C48.7718 47.1625 49.3889 47.0907 49.9743 46.9035C50.5597 46.7163 51.1019 46.4173 51.57 46.0236C52.038 45.63 52.4228 45.1494 52.7022 44.6093C52.9816 44.0692 53.1502 43.4801 53.1984 42.8758Z" fill="#EF3F42"/>
<path d="M52.9145 7.16504H13.0825C12.3938 7.16605 11.7337 7.4361 11.2469 7.91593C10.7602 8.39576 10.4867 9.04617 10.4863 9.72441V30.5777C10.4874 31.256 10.7616 31.9061 11.2488 32.3855C11.736 32.8648 12.3964 33.1342 13.0851 33.1346H52.9171C53.6062 33.1342 54.267 32.8645 54.7543 32.3846C55.2416 31.9047 55.5155 31.2539 55.5159 30.5752V9.72441C55.5157 9.38815 55.4483 9.0552 55.3174 8.74459C55.1866 8.43399 54.995 8.1518 54.7534 7.91414C54.5119 7.67648 54.2251 7.488 53.9096 7.35947C53.5941 7.23094 53.256 7.16487 52.9145 7.16504Z" fill="#EF3F42"/>
</svg>
