<svg width="60" height="60" viewBox="0 0 60 60" fill="none" xmlns="http://www.w3.org/2000/svg">
<path d="M52.2488 14.8299C52.1293 14.7569 51.9926 14.7169 51.8526 14.714C51.7126 14.7112 51.5743 14.7455 51.452 14.8135C50.0082 15.5987 49.1176 16.8503 48.8738 18.3198L47.7395 30.8331C48.0895 31.0374 48.3816 31.3279 48.5879 31.6768C48.7999 32.0295 48.9153 32.4318 48.9225 32.8432C48.9297 33.2546 48.8284 33.6607 48.6289 34.0206L43.5066 43.7389C43.4408 43.8735 43.3486 43.9934 43.2356 44.0917C43.1226 44.19 42.9909 44.2646 42.8485 44.3111C42.7061 44.3575 42.5558 44.3749 42.4066 44.3622C42.2573 44.3496 42.1122 44.307 41.9796 44.2372C41.8471 44.1674 41.73 44.0717 41.6351 43.9557C41.5403 43.8398 41.4697 43.706 41.4275 43.5623C41.3853 43.4185 41.3724 43.2678 41.3896 43.119C41.4067 42.9702 41.4536 42.8263 41.5273 42.696L46.6578 32.9624L46.5406 32.7456C45.36 32.7458 44.1959 33.0238 43.1426 33.5572C42.0893 34.0905 41.1763 34.8643 40.4773 35.8159L37.802 39.4628C36.3164 41.4853 35.5154 43.9294 35.5156 46.4389V54.8671H45.0723V52.4565C45.1145 52.2842 45.1543 52.119 45.1895 51.9467L51.4273 39.7487C52.2197 38.1997 52.633 36.4847 52.6332 34.7448V15.526C52.6363 15.3864 52.6024 15.2484 52.5348 15.1262C52.4673 15.0039 52.3686 14.9017 52.2488 14.8299Z" fill="#EF3F42"/>
<path d="M40.9602 32.2817L41.5672 25.7485C40.2336 26.8756 39.3964 28.4817 39.2363 30.2204L38.8848 34.2481C39.4758 33.4939 40.1752 32.8313 40.9602 32.2817Z" fill="#EF3F42"/>
<path d="M46.5596 19.1016C45.8891 19.3866 45.3083 19.8478 44.8787 20.4362C44.4492 21.0246 44.1869 21.7183 44.1197 22.4438L43.3193 31.0723C44.0305 30.819 44.7686 30.6491 45.5189 30.566L46.5596 19.1016Z" fill="#EF3F42"/>
<path d="M19.5172 35.8207C18.8183 34.8691 17.9053 34.0954 16.8519 33.562C15.7986 33.0286 14.6346 32.7506 13.4539 32.7504L13.3367 32.9672L18.4672 42.7008C18.541 42.8311 18.5878 42.975 18.605 43.1238C18.6221 43.2726 18.6092 43.4233 18.567 43.5671C18.5249 43.7108 18.4543 43.8446 18.3594 43.9605C18.2646 44.0765 18.1474 44.1722 18.0149 44.242C17.8824 44.3119 17.7372 44.3544 17.5879 44.3671C17.4387 44.3797 17.2884 44.3623 17.146 44.3159C17.0036 44.2694 16.872 44.1948 16.7589 44.0965C16.6459 43.9983 16.5537 43.8783 16.4879 43.7437L11.3668 34.0254C11.1673 33.6655 11.066 33.2594 11.0732 32.848C11.0804 32.4366 11.1958 32.0343 11.4078 31.6816C11.6141 31.3327 11.9062 31.0423 12.2562 30.8379L11.1254 18.3199C10.8816 16.8504 9.99102 15.5988 8.54727 14.8137C8.42427 14.7471 8.28609 14.7136 8.14625 14.7165C8.00642 14.7194 7.86973 14.7585 7.74958 14.8301C7.62943 14.9017 7.52994 15.0033 7.46085 15.1249C7.39177 15.2465 7.35545 15.384 7.35547 15.5238V34.7426C7.35565 36.4825 7.76893 38.1975 8.56133 39.7465L14.7992 51.9445C14.8402 52.1168 14.8801 52.282 14.9164 52.4543V54.8672H24.473V46.4437C24.4733 43.9342 23.6723 41.4902 22.1867 39.4676L19.5172 35.8207Z" fill="#EF3F42"/>
<path d="M19.0393 32.2817C19.8251 32.8311 20.5252 33.4937 21.117 34.2481L20.7654 30.2204C20.6053 28.4817 19.7682 26.8756 18.4346 25.7485L19.0393 32.2817Z" fill="#EF3F42"/>
<path d="M16.6807 31.0758L15.8803 22.4473C15.8137 21.7212 15.5517 21.0268 15.1221 20.4377C14.6925 19.8486 14.1114 19.3869 13.4404 19.1016L14.4811 30.566C15.2315 30.6502 15.9697 30.8213 16.6807 31.0758Z" fill="#EF3F42"/>
<path d="M29.9998 12.0845C28.7001 12.0836 27.433 12.4918 26.3783 13.2514C25.3236 14.0109 24.5347 15.0832 24.1236 16.3162C23.7124 17.5492 23.6998 18.8803 24.0875 20.1209C24.4752 21.3614 25.2437 22.4485 26.2838 23.2278V25.8986H33.7252V23.2278C34.766 22.448 35.5347 21.3601 35.9222 20.1186C36.3097 18.8772 36.2963 17.5452 35.884 16.3117C35.4716 15.0783 34.6812 14.0061 33.625 13.2473C32.5688 12.4885 31.3004 12.0816 29.9998 12.0845Z" fill="#EF3F42"/>
<path d="M30 10.3853C30.1468 10.3853 30.2922 10.3564 30.4278 10.3002C30.5635 10.244 30.6867 10.1616 30.7905 10.0578C30.8943 9.95402 30.9767 9.83077 31.0329 9.69513C31.0891 9.55949 31.118 9.41412 31.118 9.26731V6.2509C31.1086 5.96051 30.9866 5.68515 30.7779 5.48306C30.5691 5.28096 30.29 5.16797 29.9994 5.16797C29.7089 5.16797 29.4297 5.28096 29.221 5.48306C29.0122 5.68515 28.8903 5.96051 28.8809 6.2509V9.26731C28.8809 9.41422 28.9098 9.55969 28.9661 9.6954C29.0223 9.83112 29.1048 9.95442 29.2087 10.0582C29.3127 10.1621 29.436 10.2444 29.5718 10.3005C29.7076 10.3566 29.8531 10.3854 30 10.3853Z" fill="#EF3F42"/>
<path d="M32.8617 27.7231H27.1395C26.8429 27.7231 26.5586 27.8409 26.3489 28.0506C26.1393 28.2602 26.0215 28.5446 26.0215 28.8411C26.0215 29.1376 26.1393 29.422 26.3489 29.6316C26.5586 29.8413 26.8429 29.9591 27.1395 29.9591H32.8617C33.1582 29.9591 33.4426 29.8413 33.6522 29.6316C33.8619 29.422 33.9797 29.1376 33.9797 28.8411C33.9797 28.5446 33.8619 28.2602 33.6522 28.0506C33.4426 27.8409 33.1582 27.7231 32.8617 27.7231Z" fill="#EF3F42"/>
<path d="M36.9269 12.5496C37.0738 12.5496 37.2193 12.5206 37.355 12.4643C37.4908 12.408 37.6141 12.3254 37.7179 12.2215L39.8519 10.0886C40.0515 9.87669 40.1607 9.59529 40.1562 9.30415C40.1518 9.01302 40.034 8.73509 39.828 8.52935C39.6219 8.32362 39.3438 8.20628 39.0527 8.20226C38.7616 8.19823 38.4803 8.30783 38.2687 8.50778L36.1359 10.6406C35.9799 10.7972 35.8737 10.9964 35.8309 11.2132C35.788 11.43 35.8102 11.6547 35.8948 11.8588C35.9794 12.063 36.1226 12.2376 36.3062 12.3605C36.4899 12.4834 36.7059 12.5492 36.9269 12.5496Z" fill="#EF3F42"/>
<path d="M22.2822 12.2215C22.4919 12.4312 22.7763 12.5492 23.0728 12.5493C23.3694 12.5494 23.6539 12.4317 23.8637 12.222C24.0735 12.0124 24.1914 11.728 24.1915 11.4314C24.1916 11.1349 24.0739 10.8504 23.8643 10.6406L21.7314 8.50778C21.5198 8.30783 21.2386 8.19823 20.9474 8.20226C20.6563 8.20628 20.3782 8.32362 20.1721 8.52935C19.9661 8.73509 19.8483 9.01302 19.8439 9.30415C19.8394 9.59529 19.9486 9.87669 20.1482 10.0886L22.2822 12.2215Z" fill="#EF3F42"/>
<path d="M37.5645 18.198C37.5648 18.4947 37.6828 18.779 37.8927 18.9886C38.1025 19.1983 38.387 19.316 38.6836 19.316H41.7C41.9965 19.316 42.2809 19.1982 42.4905 18.9886C42.7002 18.7789 42.818 18.4946 42.818 18.198C42.818 17.9015 42.7002 17.6172 42.4905 17.4075C42.2809 17.1979 41.9965 17.0801 41.7 17.0801H38.6836C38.5367 17.0799 38.3912 17.1087 38.2554 17.1648C38.1196 17.221 37.9963 17.3033 37.8923 17.4071C37.7884 17.5109 37.7059 17.6342 37.6497 17.7699C37.5934 17.9057 37.5645 18.0511 37.5645 18.198Z" fill="#EF3F42"/>
<path d="M18.2996 19.316H21.3148C21.6113 19.316 21.8957 19.1982 22.1054 18.9886C22.315 18.7789 22.4328 18.4945 22.4328 18.198C22.4328 17.9015 22.315 17.6172 22.1054 17.4075C21.8957 17.1979 21.6113 17.0801 21.3148 17.0801H18.2996C18.0031 17.0801 17.7187 17.1979 17.5091 17.4075C17.2994 17.6172 17.1816 17.9015 17.1816 18.198C17.1816 18.4945 17.2994 18.7789 17.5091 18.9886C17.7187 19.1982 18.0031 19.316 18.2996 19.316Z" fill="#EF3F42"/>
</svg>
