<svg width="38" height="38" viewBox="0 0 38 38" fill="none" xmlns="http://www.w3.org/2000/svg">
<path id="XMLID_15_" d="M4.85355e-06 18.9926C0.00742672 8.50546 8.51289 0 19 0C29.5019 0 38.0148 8.52773 38 19.0297C37.9851 29.5094 29.4648 38.0148 18.9777 38C8.49805 37.9851 -0.00741702 29.4722 4.85355e-06 18.9926ZM11.4594 15.2223C11.4148 15.2223 11.3555 15.2074 11.2961 15.2074C9.04726 15.2074 6.79102 15.2074 4.54219 15.2C4.28985 15.2 4.23789 15.3187 4.19336 15.5191C3.65157 17.8348 3.65899 20.1504 4.18594 22.466C4.25274 22.7555 4.37891 22.8 4.63867 22.8C6.80586 22.7926 8.96562 22.7926 11.1328 22.7926C11.2516 22.7926 11.3703 22.7851 11.4594 22.7777C11.4594 20.2543 11.4594 17.7605 11.4594 15.2223ZM26.5406 22.7777C26.5851 22.7777 26.6445 22.7926 26.7039 22.7926C28.9527 22.7926 31.209 22.7926 33.4578 22.8C33.7101 22.8 33.7621 22.6887 33.8066 22.4808C34.3484 20.1652 34.341 17.8496 33.814 15.534C33.7472 15.2445 33.6211 15.2 33.3613 15.2C31.1941 15.2074 29.0344 15.2074 26.8672 15.2074C26.7484 15.2074 26.6297 15.2148 26.5406 15.2223C26.5406 17.7457 26.5406 20.2394 26.5406 22.7777ZM22.6441 22.7777C22.8445 20.2394 22.8519 17.7457 22.6441 15.2297C20.1949 15.2297 17.7828 15.2297 15.3484 15.2297C15.148 17.7531 15.148 20.2543 15.3484 22.7777C17.7902 22.7777 20.1949 22.7777 22.6441 22.7777ZM22.1691 26.6297C20.0242 26.6297 17.9461 26.6297 15.8234 26.6297C16.2613 28.8785 16.7066 31.0754 17.8051 33.0793C17.9684 33.3762 18.1836 33.6582 18.4211 33.9105C18.807 34.3187 19.1855 34.3187 19.5789 33.9105C19.809 33.673 20.0168 33.4058 20.1801 33.1164C21.2785 31.0976 21.7387 28.8859 22.1691 26.6297ZM22.1766 11.3851C21.7312 9.09179 21.2785 6.85039 20.143 4.83164C19.9945 4.56445 19.7941 4.31953 19.5863 4.09687C19.193 3.69609 18.807 3.68125 18.4359 4.09687C18.1465 4.41601 17.8941 4.77226 17.6937 5.15078C16.9961 6.45703 16.6027 7.87461 16.2687 9.30703C16.1129 9.98984 15.9793 10.6727 15.8309 11.3851C17.9609 11.3851 20.0316 11.3851 22.1766 11.3851ZM32.0699 11.3926C31.7508 9.5371 26.5629 5.14336 24.2769 4.80195C25.1824 6.92461 25.6797 9.14375 26.0582 11.3926C28.0918 11.3926 30.0808 11.3926 32.0699 11.3926ZM24.2547 33.25C27.3051 32.248 31.2906 28.8637 32.0996 26.6223C30.0883 26.6223 28.0844 26.6223 26.0508 26.6223C25.7168 28.8933 25.1379 31.0754 24.2547 33.25ZM13.7527 33.2722C12.8176 31.0754 12.3203 28.8637 11.9492 26.6297C9.90078 26.6297 7.89688 26.6297 5.84844 26.6297C7.72617 29.7543 10.3164 31.9363 13.7527 33.2722ZM11.9492 11.3926C12.298 9.11406 12.8324 6.90976 13.7453 4.72773C10.309 6.06367 7.71133 8.2457 5.8336 11.3926C7.91172 11.3926 9.90078 11.3926 11.9492 11.3926Z" fill="#EF3F42"/>
</svg>
