<svg width="37" height="36" viewBox="0 0 37 36" fill="none" xmlns="http://www.w3.org/2000/svg">
<path id="XMLID_15_" d="M18.3857 35.9964C13.74 35.9964 9.09419 36.0045 4.44842 35.9964C2.32699 35.9964 0.624917 34.7014 0.139784 32.7305C0.0493356 32.364 0.00822259 31.9812 0.00822259 31.6065C0 22.5336 0 13.4689 0 4.39596C0 1.88747 1.87475 0.0142528 4.41553 0.00610833C13.7482 -0.00203611 23.0808 -0.00203611 32.4135 0.00610833C34.9707 0.00610833 36.8372 1.87933 36.8372 4.42039C36.8372 13.4607 36.8372 22.501 36.8372 31.5414C36.8372 34.1395 34.9789 35.9801 32.3641 35.9882C27.7019 36.0045 23.0479 35.9964 18.3857 35.9964ZM15.1625 18.3229C15.1625 19.5853 15.1542 20.8477 15.1707 22.1101C15.1789 22.3463 15.2611 22.6639 15.4256 22.778C15.5489 22.8675 15.8943 22.7454 16.0834 22.6314C18.0733 21.4178 20.0549 20.188 22.0448 18.9582C22.7272 18.5347 22.7355 18.1845 22.053 17.761C20.0713 16.5312 18.0897 15.3014 16.0916 14.0878C15.9025 13.9738 15.5654 13.8435 15.4338 13.9331C15.2694 14.039 15.1789 14.3566 15.1707 14.5847C15.146 15.8308 15.1625 17.0769 15.1625 18.3229ZM9.01196 4.43668C7.54834 4.43668 6.13405 4.43668 4.71977 4.43668C4.71977 5.8701 4.71977 7.27909 4.71977 8.68808C6.15872 8.68808 7.58123 8.68808 9.01196 8.68808C9.01196 7.2628 9.01196 5.86196 9.01196 4.43668ZM9.01196 27.3144C7.56478 27.3144 6.1505 27.3144 4.71977 27.3144C4.71977 28.7397 4.71977 30.1487 4.71977 31.5658C6.15872 31.5658 7.57301 31.5658 9.01196 31.5658C9.01196 30.1487 9.01196 28.756 9.01196 27.3144ZM27.8335 27.3063C27.8335 28.7234 27.8335 30.1487 27.8335 31.5577C29.2806 31.5577 30.6949 31.5577 32.1092 31.5577C32.1092 30.1242 32.1092 28.7234 32.1092 27.3063C30.6867 27.3063 29.2806 27.3063 27.8335 27.3063ZM27.8335 4.42854C27.8335 5.86196 27.8335 7.27909 27.8335 8.68808C29.2806 8.68808 30.6949 8.68808 32.1174 8.68808C32.1174 7.25466 32.1174 5.85382 32.1174 4.42854C30.6785 4.42854 29.2642 4.42854 27.8335 4.42854ZM4.71977 19.6912C4.71977 21.1246 4.71977 22.5255 4.71977 23.9263C6.16694 23.9263 7.58123 23.9263 9.01196 23.9263C9.01196 22.5092 9.01196 21.1165 9.01196 19.6912C7.58123 19.6912 6.16694 19.6912 4.71977 19.6912ZM27.8088 23.9182C29.2724 23.9182 30.6949 23.9182 32.1174 23.9182C32.1174 22.4929 32.1174 21.1002 32.1174 19.6994C30.6703 19.6994 29.2395 19.6994 27.8088 19.6994C27.8088 21.1246 27.8088 22.501 27.8088 23.9182ZM9.01196 12.0762C7.56478 12.0762 6.14228 12.0762 4.71154 12.0762C4.71154 13.5014 4.71154 14.8941 4.71154 16.3031C6.15872 16.3031 7.58123 16.3031 9.01196 16.3031C9.01196 14.8779 9.01196 13.4852 9.01196 12.0762ZM27.817 16.3113C29.2642 16.3113 30.6867 16.3113 32.1092 16.3113C32.1092 14.886 32.1092 13.4852 32.1092 12.068C30.662 12.068 29.2478 12.068 27.817 12.068C27.817 13.4852 27.817 14.8779 27.817 16.3113Z" fill="#EF3F42"/>
</svg>
