<svg width="50" height="37" viewBox="0 0 50 37" fill="none" xmlns="http://www.w3.org/2000/svg">
<g id="Vector">
<path d="M23.9118 14.1556C25.4002 15.0376 26.8779 15.9087 28.3557 16.7689C33.8489 19.9919 39.3422 23.2258 44.8462 26.438C45.1032 26.5904 45.478 26.6231 45.7885 26.5904C47.6624 26.3727 49.4721 27.6249 49.9004 29.4868C50.3395 31.4032 49.2901 33.3305 47.4697 33.9512C45.66 34.5718 43.679 33.7334 42.9187 31.9477C42.7046 31.4468 42.3833 31.1419 41.9443 30.8806C35.2838 26.9824 28.6448 23.0734 21.995 19.1644C21.2776 18.7397 21.299 18.7615 20.7422 19.4039C20.3031 19.9048 19.8427 20.3839 19.3287 20.7977C18.8575 21.1788 18.3114 21.2659 17.7332 20.9175C14.8634 19.2188 11.9936 17.542 9.12383 15.8542C8.40638 15.4296 8.47063 14.7327 8.58842 14.0685C8.88825 12.4134 9.57357 10.889 10.4623 9.47347C11.2869 8.14505 12.2506 6.90375 13.1822 5.65155C13.4071 5.34667 13.7605 5.10712 14.0924 4.90023C14.5314 4.62801 14.9812 4.61713 15.4523 4.90023C18.29 6.57709 21.1277 8.23216 23.9653 9.90902C24.6506 10.3119 24.8434 10.8346 24.6185 11.7819C24.4151 12.5658 24.1581 13.3172 23.9118 14.1556ZM11.7902 15.19C12.1971 15.2009 12.4541 15.0049 12.6468 14.5149C13.4499 12.3807 14.5529 10.4317 15.9663 8.65682C16.3839 8.12327 16.3732 7.6224 15.9449 7.27396C15.4952 6.91463 15.0347 6.96908 14.6278 7.54618C13.889 8.5806 13.1287 9.62591 12.5076 10.7366C11.9294 11.7492 11.4796 12.8381 11.0406 13.9269C10.73 14.602 11.1262 15.1791 11.7902 15.19Z" fill="#EF3F42"/>
<path d="M11.5225 37C8.01018 37 4.49791 37 0.985637 37C0.150402 37 -0.0102206 36.8367 0.000487555 35.9765C0.0111957 35.3667 -0.0102206 34.7352 0.0754446 34.1363C0.268191 32.7534 1.38184 31.719 2.75248 31.719C8.59913 31.7081 14.4565 31.6972 20.3031 31.719C21.8665 31.719 23.0551 32.993 23.0658 34.5827C23.0658 35.1054 23.0658 35.6389 23.0658 36.1616C23.0658 36.8149 22.8945 37 22.2413 37C18.6541 37 15.0883 37 11.5225 37Z" fill="#EF3F42"/>
<path d="M7.65681 17.5964C7.95664 17.7053 8.27788 17.7706 8.54559 17.9231C11.1477 19.4366 13.739 20.9501 16.3197 22.4854C17.2513 23.0407 17.5297 24.0643 17.0371 24.9571C16.566 25.8173 15.4952 26.1113 14.585 25.5778C11.9722 24.0643 9.37011 22.529 6.76803 20.9828C6.02917 20.5472 5.72935 19.7524 5.95422 18.9902C6.16838 18.1953 6.84299 17.6617 7.65681 17.5964Z" fill="#EF3F42"/>
<path d="M25.4966 8.23216C25.186 8.11239 24.8434 8.04705 24.565 7.87284C21.995 6.38109 19.4358 4.87845 16.8765 3.36493C15.9449 2.80961 15.6558 1.77519 16.1591 0.893204C16.6624 0.0112226 17.7011 -0.260994 18.622 0.27255C21.224 1.78607 23.8154 3.31049 26.4068 4.8349C27.1885 5.29222 27.4776 6.0871 27.2313 6.92552C27.0064 7.68773 26.3318 8.16683 25.4966 8.23216Z" fill="#EF3F42"/>
</g>
</svg>
