<svg width="40" height="40" viewBox="0 0 40 40" fill="none" xmlns="http://www.w3.org/2000/svg">
<g id="Vector">
<path d="M20.0214 0C24.9519 0 29.874 0 34.8045 0C37.8381 0 40 2.16239 40 5.18803C40 12.1624 40 19.1453 40 26.1197C40 29.0342 37.8295 31.2479 34.9071 31.2564C24.969 31.265 15.031 31.265 5.09293 31.2564C2.17902 31.2564 0.00854518 29.0427 0 26.1282C0 19.1111 0 12.0855 0 5.06838C0.00854518 2.21368 2.2132 0.00854701 5.06729 0C10.0491 0 15.0395 0 20.0214 0ZM19.9957 3.75214C15.0993 3.75214 10.2029 3.78632 5.29801 3.73504C3.61461 3.71795 2.46101 4.91453 2.4781 6.54701C2.52083 11.7607 2.49519 16.9744 2.49519 22.188C2.49519 23.9829 3.50353 25.0085 5.28947 25.0085C15.0993 25.0085 24.9092 25.0085 34.7191 25.0085C36.4794 25.0085 37.5048 23.9829 37.5048 22.2222C37.5048 17.0085 37.4792 11.7949 37.5219 6.5812C37.539 4.90598 36.3854 3.71795 34.6849 3.73504C29.7885 3.78632 24.8921 3.75214 19.9957 3.75214ZM21.8757 28.1453C21.8842 27.1538 21.0041 26.2564 20.0043 26.2479C19.0301 26.2393 18.1414 27.1026 18.1243 28.0855C18.0987 29.0855 18.9703 29.9829 19.9701 30C20.9699 30.0171 21.8671 29.1453 21.8757 28.1453Z" fill="#EF3F42"/>
<path d="M16.2444 36.2393C16.2444 35.4103 16.2444 34.6154 16.2444 33.7949C18.7481 33.7949 21.2177 33.7949 23.73 33.7949C23.73 34.5897 23.73 35.3932 23.73 36.2564C23.9265 36.2564 24.0718 36.2564 24.2256 36.2564C25.909 36.2564 27.5838 36.265 29.2673 36.2479C29.7714 36.2393 30.173 36.4017 30.5148 36.7692C30.8396 37.1282 31.1899 37.4615 31.5403 37.7949C31.959 38.2051 32.0957 38.6923 31.8735 39.2308C31.6514 39.7863 31.207 40 30.6174 40C24.5332 40 18.4576 40 12.3734 40C11.3651 40 10.3482 39.9915 9.33988 40C8.76736 40 8.3401 39.7778 8.11792 39.2393C7.89575 38.6923 8.01538 38.2137 8.44264 37.7949C8.81008 37.4359 9.17753 37.0769 9.52788 36.7094C9.84405 36.3761 10.2115 36.2308 10.6729 36.2393C12.4418 36.2479 14.2021 36.2479 15.9709 36.2393C16.0393 36.2564 16.1162 36.2479 16.2444 36.2393Z" fill="#EF3F42"/>
<path d="M22.3713 22.641C19.107 22.641 15.8513 22.641 12.5871 22.641C10.7413 22.641 9.75005 21.641 9.75005 19.7863C9.75005 16.4786 9.75005 13.1795 9.75005 9.87179C9.75005 9.61539 9.76714 9.35043 9.84405 9.11966C10.1517 8.23932 11.2113 8.04274 11.8693 8.76923C12.9203 9.91453 13.9457 11.0769 14.9797 12.2393C15.988 13.3675 16.9878 14.4957 17.9962 15.6154C19.0728 16.8205 20.5426 16.9145 21.7817 15.8718C22.9951 14.8547 24.2 13.8376 25.4134 12.8291C26.5499 11.8803 27.9342 11.9316 28.9767 12.9915C30.7199 14.7692 32.4546 16.5641 34.2064 18.3333C34.9925 19.1282 35.2403 20.0256 34.8216 21.0598C34.3858 22.1197 33.5484 22.6325 32.4119 22.641C29.8227 22.6496 27.225 22.641 24.6358 22.641C23.8838 22.641 23.1233 22.641 22.3713 22.641Z" fill="#EF3F42"/>
<path d="M32.4973 6.24786C33.8731 6.24786 34.9925 7.36752 35.0011 8.74359C35.0011 10.1197 33.8731 11.2479 32.5059 11.2479C31.1301 11.2479 30.0021 10.1197 30.0021 8.74359C30.0021 7.37607 31.1216 6.24786 32.4973 6.24786Z" fill="#EF3F42"/>
<path d="M7.48558 6.2735C7.48558 7.11111 7.48558 7.89744 7.48558 8.71795C6.6567 8.71795 5.85345 8.71795 5.02457 8.71795C5.02457 7.90598 5.02457 7.10256 5.02457 6.2735C5.8449 6.2735 6.64815 6.2735 7.48558 6.2735Z" fill="#EF3F42"/>
<path d="M7.47704 18.7179C6.6567 18.7179 5.85345 18.7179 5.02457 18.7179C5.02457 17.906 5.02457 17.1026 5.02457 16.2735C5.8449 16.2735 6.64815 16.2735 7.47704 16.2735C7.47704 17.0855 7.47704 17.8889 7.47704 18.7179Z" fill="#EF3F42"/>
<path d="M5.02457 13.735C5.02457 12.9145 5.02457 12.1111 5.02457 11.2821C5.8449 11.2821 6.64815 11.2821 7.48558 11.2821C7.48558 12.1026 7.48558 12.906 7.48558 13.735C6.6567 13.735 5.85345 13.735 5.02457 13.735Z" fill="#EF3F42"/>
</g>
</svg>
