<svg width="33" height="45" viewBox="0 0 33 45" fill="none" xmlns="http://www.w3.org/2000/svg">
<g id="Vector">
<path d="M15.9098 44.9955C12.1281 44.9955 8.35647 45.0057 4.57471 44.9955C2.45001 44.9853 0.691289 43.6188 0.162656 41.5998C0.0609961 41.2123 0.010166 40.7942 0.010166 40.3965C0 36.5114 0 32.6161 0 28.7309C0 26.7017 1.25042 24.9886 3.19213 24.3665C3.47678 24.2748 3.62927 24.1728 3.6801 23.8363C3.77159 23.2143 4.24939 22.8166 4.87969 22.8064C5.7438 22.786 6.60791 22.786 7.47202 22.8064C8.14298 22.8268 8.52929 23.1429 8.69194 23.8159C8.76311 24.0912 8.89526 24.132 9.14942 24.1626C9.86104 24.2544 10.3388 24.03 10.7251 23.3774C11.2741 22.4597 11.9451 21.6235 12.5449 20.7363C12.8193 20.3387 13.165 20.1551 13.653 20.1551C16.347 20.1653 19.041 20.1755 21.7349 20.1551C22.2839 20.1551 22.6601 20.3591 22.9549 20.8077C23.5852 21.7459 24.2764 22.6636 24.8966 23.612C25.1609 24.0096 25.4455 24.1728 25.9233 24.1626C26.7265 24.1524 27.5601 24.132 28.3429 24.3054C30.3557 24.7336 31.7688 26.5487 31.779 28.6188C31.7993 32.5549 31.7993 36.5012 31.779 40.4373C31.7688 43.0274 29.7864 44.9955 27.1839 44.9955C23.4225 45.0057 19.6611 44.9955 15.9098 44.9955ZM17.7194 42.5176C22.5584 42.5176 26.4926 38.5916 26.4926 33.7582C26.4926 28.9043 22.5279 24.9172 17.7092 24.9274C12.9007 24.9376 8.95626 28.8941 8.93593 33.7174C8.9156 38.5712 12.86 42.5176 17.7194 42.5176ZM4.80853 30.7806C5.79463 30.7908 6.59774 30.0056 6.59774 29.0267C6.59774 28.0987 5.7743 27.2727 4.84919 27.2727C3.90375 27.2727 3.1108 28.0579 3.1108 29.0165C3.09047 29.9954 3.84275 30.7704 4.80853 30.7806Z" fill="#EF3F42"/>
<path d="M27.5702 10.3148C23.3107 10.4882 20.0271 8.87701 17.7397 5.20602C15.4422 8.87701 12.1687 10.4984 7.95999 10.325C8.18364 10.998 8.43779 11.5895 8.58012 12.2115C9.27141 15.1381 8.33613 17.514 6.13011 19.4515C5.78446 19.7574 5.41849 20.0225 5.03218 20.2775C4.55438 20.5936 4.03591 20.4916 3.72076 20.0735C3.41578 19.6554 3.48694 19.1354 3.90375 18.7581C4.33072 18.3706 4.79836 18.0239 5.18467 17.5956C6.74007 15.8825 7.03488 13.8838 5.90646 11.875C5.32699 10.8349 4.50355 9.92732 3.77159 8.97898C3.47678 8.59149 3.0803 8.27538 2.80582 7.86749C2.68383 7.68394 2.65333 7.32704 2.75499 7.13329C2.83632 6.98034 3.19213 6.87836 3.39545 6.90895C4.52388 7.1027 5.64214 7.37803 6.78073 7.56157C8.11248 7.78591 9.44423 7.79611 10.7658 7.51059C12.4432 7.14349 13.8156 6.24614 14.7407 4.80833C15.5947 3.4725 16.2961 2.04489 17.0586 0.637681C17.2212 0.331765 17.3534 -0.0863196 17.7397 0.0156523C18.004 0.0870326 18.2582 0.403146 18.4107 0.668273C19.0918 1.91233 19.6509 3.23797 20.4134 4.43104C22.1314 7.1027 24.7238 7.97966 27.7532 7.65335C29.146 7.51059 30.5082 7.17408 31.8908 6.91915C32.2364 6.85797 32.5618 6.78659 32.7956 7.15369C33.0192 7.52079 32.7752 7.76552 32.5719 8.01025C31.8603 8.84642 31.108 9.6622 30.4269 10.529C29.6339 11.5385 29.0443 12.6704 28.9325 13.9858C28.7698 15.8723 29.7356 17.2183 31.0877 18.3604C31.2402 18.493 31.413 18.6051 31.5655 18.7479C31.9721 19.115 32.023 19.6554 31.7078 20.0633C31.3927 20.4814 30.9047 20.5732 30.4472 20.2673C28.3124 18.8397 26.8484 16.9838 26.6756 14.3121C26.6045 13.1598 26.8586 12.0585 27.2958 10.9878C27.3771 10.7941 27.4482 10.6003 27.5702 10.3148Z" fill="#EF3F42"/>
<path d="M17.6685 18.5032C16.3165 18.5032 14.9644 18.5032 13.6123 18.5032C12.8498 18.5032 12.4839 18.1565 12.4737 17.3917C12.4534 15.9539 12.4635 14.5059 12.4737 13.0681C12.4839 12.3339 12.8702 11.9464 13.6225 11.9464C16.347 11.9362 19.0714 11.9362 21.7959 11.9464C22.5686 11.9464 22.9549 12.3441 22.9549 13.1088C22.965 14.5161 22.965 15.9233 22.9549 17.3305C22.9447 18.1667 22.6092 18.5032 21.7858 18.5134C20.4134 18.5032 19.041 18.5032 17.6685 18.5032ZM17.6685 16.4739C18.6038 16.4739 19.5289 16.4637 20.4642 16.4739C20.7997 16.4739 20.9623 16.3923 20.9522 16.015C20.9318 15.4746 20.9318 14.9341 20.9522 14.3835C20.9623 14.1082 20.8607 13.9858 20.576 13.996C18.6851 14.0062 16.7841 14.0062 14.8932 13.996C14.6086 13.996 14.5069 14.1082 14.5171 14.3835C14.5272 14.8628 14.5476 15.3318 14.5069 15.8111C14.4662 16.3108 14.6086 16.5045 15.1474 16.4841C15.9708 16.4331 16.8146 16.4739 17.6685 16.4739Z" fill="#EF3F42"/>
<path d="M24.1036 33.7378C24.1138 37.2558 21.2571 40.1314 17.76 40.1416C14.2223 40.1518 11.3453 37.3068 11.3148 33.7684C11.2843 30.2707 14.2019 27.3339 17.7092 27.3237C21.2165 27.3135 24.0833 30.1891 24.1036 33.7378Z" fill="#EF3F42"/>
</g>
</svg>
