<svg width="39" height="39" viewBox="0 0 39 39" fill="none" xmlns="http://www.w3.org/2000/svg">
<g id="Vector">
<path d="M28.0532 14.2082C29.0207 14.7887 29.569 15.6164 29.784 16.7666C30.4183 16.1217 31.0096 15.5627 31.5686 14.9607C32.3642 14.1115 33.3425 13.7137 34.4928 13.746C35.0088 13.7567 35.5356 13.746 36.0516 13.8105C37.7072 14.0362 38.9651 15.4122 38.9758 17.0784C39.0081 20.2173 39.0081 23.3455 38.9758 26.4844C38.9651 28.1291 37.718 29.5265 36.0946 29.7308C35.3743 29.8275 34.6326 29.806 33.9015 29.7738C33.0415 29.7308 32.3212 29.3438 31.7191 28.7418C31.1063 28.1183 30.4828 27.4949 29.8055 26.8176C29.7625 26.9789 29.7303 27.0649 29.7088 27.1509C29.225 28.8278 27.9779 29.7845 26.2363 29.806C25.2688 29.8168 24.312 29.806 23.2691 29.806C23.4089 30.3973 23.5379 30.924 23.6669 31.4615C24.1507 33.4179 24.6452 35.3851 25.129 37.3416C25.3333 38.1693 25.0215 38.8035 24.355 38.9648C23.6562 39.126 23.1186 38.7283 22.9144 37.8791C22.2908 35.3851 21.6673 32.8805 21.0438 30.3865C21.0008 30.2145 20.9578 30.0425 20.904 29.8383C20.0762 29.8383 19.2592 29.8383 18.3561 29.8383C18.3561 30.021 18.3561 30.2038 18.3561 30.3973C18.3561 32.8375 18.3669 35.2669 18.3561 37.7071C18.3561 38.6638 17.5176 39.2443 16.722 38.8465C16.2275 38.5993 16.0662 38.1801 16.0662 37.6533C16.077 35.2669 16.0662 32.8912 16.0662 30.5048C16.0662 30.2898 16.0662 30.0855 16.0662 29.806C15.2492 29.806 14.4751 29.7845 13.7118 29.8275C13.6043 29.8275 13.4538 30.0748 13.4108 30.236C12.755 32.8052 12.1207 35.3744 11.4757 37.9328C11.2714 38.739 10.6694 39.1368 9.98136 38.9433C9.34707 38.7605 9.05681 38.1478 9.25032 37.3738C9.7556 35.3421 10.2716 33.3104 10.7769 31.2787C10.8952 30.8165 11.0027 30.3435 11.1424 29.7953C10.2716 29.7953 9.43308 29.806 8.59453 29.7845C8.11075 29.7738 7.61622 29.763 7.15395 29.6555C5.65961 29.2901 4.62755 27.9463 4.5953 26.3984C4.58455 26.0221 4.5953 25.6459 4.5953 25.2374C3.84275 25.2374 3.12246 25.2374 2.34842 25.2374C2.30541 25.3557 2.27316 25.5062 2.20866 25.6459C1.98289 26.1189 1.60662 26.3554 1.09059 26.3339C0.585312 26.3231 0.176788 25.9684 0.0585312 25.4632C0.0262793 25.3127 0.00477806 25.1407 0.00477806 24.9902C0.00477806 22.8187 -0.00597257 20.658 0.00477806 18.4866C0.0155287 17.4654 0.907831 16.8419 1.69263 17.3364C1.99364 17.5299 2.18716 17.9061 2.50967 18.2931C3.07946 18.2931 3.79975 18.2931 4.6168 18.2931C4.50929 16.8419 4.64905 15.4552 5.97138 14.4662C4.19752 12.8968 3.32672 10.9726 3.49873 8.62912C3.61699 6.95216 4.28353 5.5117 5.47685 4.32924C6.89593 2.92102 8.62678 2.24379 10.6264 2.32979C12.626 2.41579 14.2601 3.27576 15.5932 4.75922C17.2273 1.59881 19.7537 -0.131892 23.2906 0.00785373C26.5803 0.13685 29.0315 1.80305 30.3001 4.86672C31.7621 8.43562 30.8376 11.553 28.0532 14.2082ZM22.9466 2.30829C19.7752 2.30829 17.195 4.87747 17.2058 8.03788C17.2058 11.1983 19.7967 13.7675 22.9681 13.7567C26.1181 13.746 28.666 11.1983 28.6767 8.05938C28.6767 4.87747 26.1181 2.30829 22.9466 2.30829ZM10.3039 13.746C12.841 13.7567 14.8944 11.7358 14.9159 9.2096C14.9374 6.68342 12.8948 4.60873 10.3791 4.58723C7.82049 4.56573 5.75636 6.59742 5.75636 9.15585C5.74561 11.6928 7.76673 13.7352 10.3039 13.746ZM22.9359 20.615C23.3444 20.615 23.7637 20.6365 24.1722 20.615C24.7742 20.572 25.2043 20.1098 25.2365 19.5401C25.258 18.9488 24.8172 18.4006 24.2152 18.3684C23.3766 18.3254 22.5381 18.3254 21.6888 18.3684C21.076 18.4006 20.6352 18.9381 20.6567 19.5293C20.6782 20.1098 21.119 20.572 21.7103 20.615C22.1081 20.6365 22.5273 20.615 22.9359 20.615ZM2.32691 22.9047C3.11171 22.9047 3.832 22.9047 4.54154 22.9047C4.54154 22.1307 4.54154 21.3998 4.54154 20.6795C3.77825 20.6795 3.05796 20.6795 2.32691 20.6795C2.32691 21.432 2.32691 22.1415 2.32691 22.9047ZM17.2595 13.7137C16.9048 13.3052 16.6038 12.9505 16.292 12.5743C16.0125 12.972 15.776 13.316 15.4964 13.7137C16.0985 13.7137 16.636 13.7137 17.2595 13.7137Z" fill="#EF3F42"/>
<path d="M22.9359 10.3061C21.6673 10.3061 20.6352 9.28485 20.6352 8.02713C20.6352 6.76942 21.6565 5.7482 22.9359 5.7482C24.2044 5.7482 25.2258 6.76942 25.2258 8.02713C25.2365 9.28485 24.2044 10.3061 22.9359 10.3061Z" fill="#EF3F42"/>
<path d="M10.3469 11.467C9.08906 11.4778 8.04625 10.4673 8.0355 9.2096C8.014 7.93039 9.06756 6.87692 10.3361 6.87692C11.5832 6.88767 12.626 7.91964 12.626 9.1666C12.626 10.4136 11.594 11.4563 10.3469 11.467Z" fill="#EF3F42"/>
</g>
</svg>
