<svg width="42" height="42" viewBox="0 0 42 42" fill="none" xmlns="http://www.w3.org/2000/svg">
<g id="Vector">
<path d="M24.6415 0.0001095C34.2643 0.0339261 42.0421 7.8371 41.9998 17.4241C41.966 26.9181 34.0951 34.7128 24.5907 34.679C15.044 34.6452 7.25776 26.842 7.28315 17.3396C7.30854 7.76946 15.1202 -0.0337071 24.6415 0.0001095ZM40.7049 17.3565C40.6965 8.45425 33.4772 1.22596 24.5992 1.24287C15.7042 1.25978 8.53572 8.4627 8.53572 17.3818C8.53572 26.2418 15.7719 33.4531 24.6415 33.4362C33.5619 33.4109 40.7049 26.2587 40.7049 17.3565Z" fill="#EF3F42"/>
<path d="M8.73884 27.0534C10.2876 29.6234 12.395 31.6524 14.9171 33.2841C14.8663 33.3601 14.824 33.4362 14.7732 33.487C12.3612 35.8964 9.96603 38.3312 7.52858 40.7152C5.14192 43.0401 1.20646 42.0679 0.233171 38.9399C-0.257703 37.3505 0.0131241 35.8541 1.1726 34.6536C3.61851 32.1174 6.12367 29.6319 8.60343 27.1294C8.63728 27.1125 8.67114 27.0956 8.73884 27.0534Z" fill="#EF3F42"/>
<path d="M24.6161 24.7876C23.1519 24.7031 21.7047 24.6017 20.3167 24.1198C20.1474 24.0606 19.9697 24.0014 19.8004 23.9253C18.057 23.1814 17.5238 22.2176 17.8962 20.3492C18.3109 18.2526 19.4704 16.6801 21.3239 15.6065C21.6285 15.4289 21.8824 15.4289 22.1871 15.598C23.7698 16.4941 25.3863 16.4857 26.9858 15.6572C27.4005 15.4458 27.7391 15.4543 28.1284 15.691C30.0834 16.9084 31.1921 18.6584 31.4799 20.941C31.6322 22.1415 31.1752 23.0376 30.1257 23.5533C29.3471 23.9338 28.5092 24.2297 27.6714 24.4072C26.6727 24.627 25.6402 24.6693 24.6161 24.7876Z" fill="#EF3F42"/>
<path d="M24.5992 8.12454C26.5034 8.12454 28.0184 9.62092 28.0268 11.5146C28.0353 13.383 26.5034 14.9301 24.6246 14.947C22.7711 14.9639 21.2054 13.4084 21.1969 11.54C21.18 9.66319 22.7118 8.12454 24.5992 8.12454Z" fill="#EF3F42"/>
<path d="M16.9906 23.4096C15.7888 23.3843 14.6209 23.2997 13.5037 22.8432C12.1242 22.2768 11.7095 21.4652 12.0396 19.9434C12.3612 18.447 13.199 17.3057 14.5532 16.5702C14.7309 16.4772 15.0271 16.4096 15.1795 16.4941C16.0427 16.9845 16.9398 17.1536 17.9216 16.8999C16.8213 18.9712 15.8819 21.0256 16.9906 23.4096Z" fill="#EF3F42"/>
<path d="M32.2331 23.4181C33.2064 21.4229 32.6478 19.6053 31.8269 17.813C31.7592 17.6608 31.6661 17.5171 31.5814 17.3734C31.4968 17.2296 31.4122 17.0944 31.3106 16.9338C31.9115 16.9338 32.4701 16.9507 33.0287 16.9253C33.2318 16.9168 33.4603 16.8408 33.6211 16.7224C34.2135 16.2997 34.7129 16.4772 35.2291 16.8661C36.4986 17.8214 37.1926 19.0642 37.2773 20.662C37.3281 21.5413 36.9557 22.1415 36.2194 22.5642C35.3561 23.063 34.4082 23.2321 33.4349 23.3335C33.0456 23.3843 32.6563 23.3927 32.2331 23.4181Z" fill="#EF3F42"/>
<path d="M14.3754 13.5267C14.3924 12.0219 15.5603 10.8637 17.0245 10.889C18.4632 10.9144 19.6312 12.0895 19.6227 13.5098C19.6143 14.947 18.404 16.1475 16.9737 16.1306C15.5095 16.1052 14.3585 14.9555 14.3754 13.5267Z" fill="#EF3F42"/>
<path d="M34.916 13.4929C34.9245 14.947 33.7311 16.1391 32.2839 16.1222C30.8536 16.1137 29.6772 14.9301 29.6687 13.5014C29.6603 12.0726 30.8282 10.8975 32.267 10.8806C33.7227 10.8721 34.9075 12.0304 34.916 13.4929Z" fill="#EF3F42"/>
</g>
</svg>
