<svg width="36" height="33" viewBox="0 0 36 33" fill="none" xmlns="http://www.w3.org/2000/svg">
<g id="Vector">
<path d="M16.8289 16.505C16.8289 11.6272 16.8492 6.7494 16.8086 1.87159C16.7984 0.696934 17.4688 -0.00985094 18.7383 0.000103779C23.593 0.0399227 28.4578 0.0200132 33.3125 0.0200132C34.6227 0.0200132 35.1711 0.547613 35.1711 1.82182C35.1711 11.6272 35.1711 21.4326 35.1711 31.238C35.1711 32.4326 34.5922 33 33.3633 33C28.4578 33 23.5422 33 18.6367 33C17.4078 33 16.8289 32.4326 16.8289 31.238C16.8289 26.3303 16.8289 21.4227 16.8289 16.505ZM25.9898 13.4987C28.5289 13.5087 30.5805 11.5078 30.5805 9.01908C30.5805 6.52045 28.5594 4.5295 26.0102 4.51955C23.4711 4.50959 21.4195 6.51049 21.4195 8.99917C21.4195 11.4978 23.4508 13.4887 25.9898 13.4987ZM25.9594 21.0046C27.432 21.0046 28.9047 21.0046 30.3672 21.0046C31.0883 21.0046 31.3523 20.7457 31.3625 20.0489C31.3727 19.7005 31.3625 19.3521 31.3625 19.0037C31.3523 18.267 31.0984 18.0082 30.357 17.9982C29.4937 17.9883 28.6305 17.9982 27.7672 17.9982C25.7258 17.9982 23.6742 17.9982 21.6328 17.9982C20.9117 17.9982 20.6578 18.267 20.6375 18.9638C20.6273 19.2924 20.6375 19.6308 20.6375 19.9593C20.6477 20.7656 20.8813 21.0046 21.6938 21.0046C23.1156 21.0046 24.5375 21.0046 25.9594 21.0046ZM26 26.2407C26.7414 26.2407 27.493 26.2507 28.2344 26.2407C28.7625 26.2308 29.0367 25.962 29.057 25.4344C29.0672 24.9665 29.0672 24.5086 29.057 24.0408C29.0367 23.553 28.7625 23.2543 28.2648 23.2543C26.7617 23.2444 25.2586 23.2444 23.7453 23.2543C23.2477 23.2543 22.9734 23.543 22.9531 24.0408C22.943 24.4887 22.943 24.9367 22.9531 25.3846C22.9633 25.962 23.2273 26.2308 23.8266 26.2407C24.5477 26.2507 25.2687 26.2407 26 26.2407Z" fill="#EF3F42"/>
<path d="M13.7312 2.25983C13.7312 11.7666 13.7312 21.2236 13.7312 30.7403C13.5383 30.7403 13.3758 30.7403 13.2031 30.7403C9.39453 30.7403 5.58594 30.7403 1.7875 30.7403C0.56875 30.7403 0 30.1729 0 28.9683C0 20.6661 0 12.3539 0 4.05167C0 2.82724 0.578906 2.26978 1.83828 2.26978C5.60625 2.26978 9.38437 2.26978 13.1523 2.26978C13.3352 2.25983 13.518 2.25983 13.7312 2.25983ZM10.6945 10.5023C10.6945 8.44171 9.00859 6.77927 6.90625 6.75936C4.80391 6.73945 3.05703 8.45166 3.05703 10.5123C3.05703 12.5729 4.81406 14.2851 6.91641 14.2553C9.00859 14.2453 10.6945 12.563 10.6945 10.5023ZM6.85547 21.0046C8.02344 21.0046 9.18125 21.0046 10.3492 21.0046C11.243 21.0046 11.4664 20.7856 11.4664 19.9295C11.4664 19.581 11.4766 19.2326 11.4664 18.8842C11.4563 18.3068 11.182 18.0281 10.6031 17.9982C10.2781 17.9783 9.96328 17.9883 9.63828 17.9883C7.52578 17.9883 5.41328 17.9883 3.30078 17.9883C2.54922 17.9883 2.30547 18.2372 2.29531 18.9738C2.29531 19.3222 2.29531 19.6706 2.29531 20.019C2.30547 20.7656 2.53906 20.9847 3.30078 20.9946C4.49922 21.0046 5.67734 21.0046 6.85547 21.0046ZM6.88594 26.2407C7.62734 26.2407 8.37891 26.2507 9.12031 26.2407C9.62813 26.2308 9.9125 25.962 9.93281 25.4842C9.95312 25.0064 9.95312 24.5186 9.93281 24.0408C9.9125 23.553 9.61797 23.2643 9.13047 23.2643C7.62734 23.2543 6.12422 23.2543 4.61094 23.2643C4.11328 23.2643 3.84922 23.553 3.82891 24.0507C3.80859 24.4987 3.81875 24.9466 3.82891 25.3946C3.83906 25.9819 4.10312 26.2407 4.70234 26.2507C5.43359 26.2507 6.16484 26.2407 6.88594 26.2407Z" fill="#EF3F42"/>
</g>
</svg>
