<svg width="35" height="39" viewBox="0 0 35 39" fill="none" xmlns="http://www.w3.org/2000/svg">
<g id="Vector">
<path d="M11.5981 24.7397C12.1329 26.5918 12.6198 28.4121 13.1946 30.2165C13.7533 31.997 14.3999 33.7458 14.9986 35.5104C15.0465 35.5025 15.1024 35.4866 15.1503 35.4786C15.2062 34.9461 15.27 34.4135 15.3179 33.8809C15.4616 32.2752 15.5973 30.6616 15.749 29.0559C15.7889 28.6665 15.717 28.3246 15.5334 27.9908C15.4217 27.8 15.3419 27.5854 15.2461 27.3787C15.0385 26.9256 15.2141 26.1467 15.6292 25.8525C15.733 25.7731 15.9006 25.7492 16.0363 25.7413C16.9942 25.7333 17.9521 25.7413 18.91 25.7333C19.2134 25.7333 19.381 25.8764 19.5406 26.1228C19.8599 26.6236 19.9477 27.0926 19.5965 27.6251C19.2373 28.1657 19.1495 28.7618 19.2213 29.4295C19.4448 31.4406 19.5965 33.4596 19.844 35.4866C20.5943 33.7537 21.217 31.9891 21.7598 30.1926C22.3106 28.3882 22.8134 26.5679 23.3483 24.7079C23.8751 24.8748 24.386 25.0418 24.9049 25.2007C27.4273 25.9718 29.9418 26.7905 32.4882 27.49C33.5978 27.7921 33.965 28.5234 34.0767 29.4931C34.396 32.2117 34.6914 34.9381 34.9867 37.6566C35.0825 38.539 34.6594 39 33.7574 39C27.2357 39 20.722 39 14.2004 39C9.9058 39 5.60325 39 1.30868 39C0.326834 39 -0.0882538 38.5628 0.0155182 37.593C0.262975 35.2402 0.534379 32.8873 0.7978 30.5344C0.86166 29.9462 0.941484 29.3501 1.07719 28.7777C1.21289 28.1975 1.55613 27.7921 2.18675 27.6013C5.27596 26.6713 8.34921 25.7174 11.4304 24.7715C11.4704 24.7715 11.5262 24.7635 11.5981 24.7397Z" fill="#EF3F42"/>
<path d="M8.07781 10.1932C8.20553 9.0327 8.26939 7.6655 8.51685 6.33008C9.00378 3.78644 10.5524 2.03769 12.9152 1.01228C15.7011 -0.195951 18.5588 -0.315185 21.4405 0.614835C24.2902 1.53691 25.9346 3.58772 26.5492 6.44932C26.7727 7.49062 26.8446 8.57167 26.8845 9.63682C26.9404 11.0199 26.9883 12.411 26.653 13.7861C26.4534 14.6049 26.0863 15.3282 25.4157 15.8608C25.1044 16.1072 24.9288 16.4172 24.7931 16.7908C23.6915 19.8511 21.632 21.886 18.3512 22.4425C16.188 22.8081 14.2882 22.045 12.6438 20.6619C11.3267 19.557 10.4885 18.1262 9.96167 16.5047C9.9058 16.3298 9.79404 16.139 9.65036 16.0277C8.58869 15.1931 8.14965 14.0643 8.07781 12.7687C8.04588 11.9817 8.07781 11.1869 8.07781 10.1932ZM25.3359 11.2902C25.1284 11.314 25.0645 11.314 25.0006 11.3299C23.5558 11.6479 22.103 11.7274 20.6502 11.4492C17.5051 10.8451 15.0944 9.15194 13.3941 6.46521C13.2504 6.24265 13.1387 6.17905 12.8833 6.25854C11.6619 6.63214 10.8956 7.45088 10.5364 8.64321C10.3847 9.14399 10.3688 9.67656 10.281 10.233C9.76211 10.3363 9.57851 10.7576 9.61044 11.2504C9.66632 12.0135 9.75413 12.7766 9.89781 13.5238C10.0016 14.0882 10.3289 14.5572 10.8397 14.8433C11.2069 15.05 11.3826 15.3521 11.4863 15.7416C11.7497 16.7749 12.1888 17.7367 12.8753 18.5714C14.1205 20.0737 15.717 20.9242 17.6887 20.8845C20.0036 20.8368 22.3824 18.9847 23.1886 16.3298C23.3962 15.6303 23.7075 15.0898 24.2423 14.6208C24.5137 14.3823 24.7931 14.0643 24.8809 13.7384C25.0964 12.9595 25.1842 12.1566 25.3359 11.2902Z" fill="#EF3F42"/>
</g>
</svg>
