<svg width="41" height="41" viewBox="0 0 41 41" fill="none" xmlns="http://www.w3.org/2000/svg">
<g id="Vector">
<path d="M7.25781 10.4122C6.90554 10.4122 6.5853 10.4122 6.27306 10.4122C5.37637 10.4122 4.91201 9.96367 4.88799 9.07462C4.88799 8.99453 4.87998 8.92245 4.87198 8.81032C4.21547 8.81032 3.57498 8.81032 2.93449 8.81032C1.19715 8.80231 0.00423466 7.60891 0.00423466 5.85485C0.00423466 5.17406 -0.02779 4.48525 0.0842962 3.82047C0.292456 2.54698 1.42132 1.63391 2.71032 1.60188C3.41486 1.58586 4.1194 1.60188 4.85597 1.60188C4.86397 1.48974 4.87998 1.40164 4.88799 1.31354C4.91201 0.480563 5.38437 0 6.20901 0C15.7363 0 25.2637 0 34.791 0C35.6076 0 36.088 0.480563 36.112 1.2815C36.112 1.3696 36.112 1.46572 36.112 1.60188C36.7445 1.60188 37.353 1.60188 37.9694 1.60188C39.8349 1.60188 41.0038 2.76324 40.9958 4.62141C40.9958 5.27017 41.0278 5.93495 40.9157 6.5757C40.6995 7.86521 39.5707 8.77828 38.2577 8.81032C37.5531 8.82633 36.8486 8.81032 36.112 8.81032C36.112 8.97851 36.12 9.10666 36.112 9.24282C36.08 9.9076 35.5916 10.3882 34.9271 10.4122C34.5428 10.4282 34.1585 10.4122 33.7422 10.4122C33.7422 17.1401 33.7422 23.8439 33.7422 30.5958C34.0544 30.5958 34.3747 30.5958 34.6869 30.5958C35.6396 30.5958 36.08 31.0283 36.112 31.9734C36.112 32.0375 36.12 32.1016 36.128 32.1977C36.7845 32.1977 37.425 32.1977 38.0575 32.1977C39.7868 32.1977 40.9878 33.3911 40.9878 35.1051C40.9878 35.7939 41.0198 36.4987 40.9077 37.1795C40.6995 38.453 39.5707 39.3661 38.2817 39.3981C37.5771 39.4141 36.8726 39.3981 36.136 39.3981C36.128 39.5183 36.112 39.6224 36.104 39.7185C36.08 40.5034 35.5996 41 34.823 41C25.2717 41 15.7123 41 6.16097 41C5.38437 41 4.896 40.5034 4.87999 39.7185C4.87999 39.6304 4.87999 39.5343 4.87999 39.3981C4.2475 39.3981 3.63903 39.3981 3.03056 39.3981C1.17313 39.4061 0.00423466 38.2448 0.00423466 36.3866C0.00423466 35.7378 -0.02779 35.0731 0.0842962 34.4323C0.300463 33.1428 1.42933 32.2297 2.74234 32.1977C3.44688 32.1817 4.15142 32.1977 4.88799 32.1977C4.88799 32.0295 4.87998 31.9014 4.88799 31.7652C4.92002 31.1084 5.40839 30.6198 6.0729 30.5958C6.4572 30.5798 6.84149 30.5958 7.25781 30.5958C7.25781 23.8679 7.25781 17.1641 7.25781 10.4122ZM31.2763 30.5798C31.2763 23.8439 31.2763 17.1401 31.2763 10.4442C24.0627 10.4442 16.8812 10.4442 9.7077 10.4442C9.7077 17.1721 9.7077 23.8679 9.7077 30.5798C16.9052 30.5798 24.0788 30.5798 31.2763 30.5798ZM7.30585 38.5732C16.1206 38.5732 24.9034 38.5732 33.6861 38.5732C33.6861 36.707 33.6861 34.8728 33.6861 33.0147C24.8874 33.0147 16.1046 33.0147 7.30585 33.0147C7.30585 34.8808 7.30585 36.715 7.30585 38.5732ZM7.30585 7.98535C16.1206 7.98535 24.9034 7.98535 33.6781 7.98535C33.6781 6.11115 33.6781 4.269 33.6781 2.42684C24.8714 2.42684 16.0966 2.42684 7.30585 2.42684C7.30585 4.27701 7.30585 6.11916 7.30585 7.98535ZM4.87198 34.6005C4.17544 34.6005 3.50293 34.5925 2.83041 34.6005C2.5582 34.6005 2.41409 34.7687 2.41409 35.033C2.40608 35.5376 2.39007 36.0422 2.4301 36.5468C2.44611 36.699 2.63025 36.9633 2.75035 36.9633C3.46289 37.0033 4.17544 36.9793 4.87999 36.9793C4.87198 36.1703 4.87198 35.4095 4.87198 34.6005ZM36.136 34.6005C36.136 35.4255 36.136 36.2024 36.136 37.0033C36.8246 37.0033 37.4891 37.0113 38.1456 37.0033C38.4338 37.0033 38.5859 36.8351 38.5859 36.5468C38.5939 36.0582 38.5859 35.5616 38.5859 35.0731C38.5859 34.7687 38.4258 34.6085 38.1216 34.6005C37.4731 34.6005 36.8246 34.6005 36.136 34.6005ZM4.87999 4.00469C4.16744 4.00469 3.49492 3.99668 2.8224 4.00469C2.55019 4.00469 2.41409 4.17289 2.40608 4.4452C2.39808 4.9498 2.38206 5.4624 2.42209 5.95898C2.43811 6.11116 2.62225 6.36745 2.74234 6.37546C3.45489 6.41551 4.16744 6.39148 4.87999 6.39148C4.87999 5.58254 4.87999 4.82965 4.87999 4.00469ZM36.128 6.39949C36.8326 6.39949 37.5211 6.42352 38.2096 6.38347C38.3457 6.37546 38.5619 6.11916 38.5699 5.96699C38.6179 5.4624 38.6099 4.9578 38.5699 4.45321C38.5539 4.30104 38.3697 4.03673 38.2497 4.03673C37.5371 3.99668 36.8246 4.02071 36.12 4.02071C36.128 4.83766 36.128 5.59855 36.128 6.39949Z" fill="#EF3F42"/>
<path d="M20.54 19.3026C22.6296 19.3026 24.7273 19.2946 26.8169 19.3026C27.7696 19.3026 28.3701 20.1756 27.9858 21.0006C27.7456 21.5132 27.3052 21.7134 26.7528 21.7134C23.3102 21.7054 19.8755 21.7134 16.4329 21.7134C15.6883 21.7134 14.9437 21.7134 14.1911 21.7134C13.4226 21.7054 12.8781 21.2008 12.8861 20.496C12.8941 19.8152 13.4306 19.3106 14.1751 19.3106C16.3048 19.3026 18.4264 19.3026 20.54 19.3026Z" fill="#EF3F42"/>
<path d="M20.54 13.696C22.6296 13.696 24.7273 13.688 26.8169 13.696C27.7696 13.696 28.3701 14.5771 27.9858 15.394C27.7456 15.9066 27.3052 16.1069 26.7528 16.1069C23.5824 16.0988 20.4039 16.1069 17.2335 16.1069C16.2327 16.1069 15.2319 16.1069 14.2312 16.1069C13.4306 16.1069 12.8781 15.6023 12.8861 14.8894C12.8941 14.1926 13.4386 13.704 14.2152 13.704C16.3288 13.696 18.4344 13.696 20.54 13.696Z" fill="#EF3F42"/>
<path d="M20.468 27.312C18.3784 27.312 16.2808 27.32 14.1911 27.312C13.2384 27.312 12.6219 26.447 13.0062 25.63C13.2464 25.1174 13.6788 24.9092 14.2392 24.9092C17.3055 24.9172 20.3719 24.9092 23.4383 24.9092C24.5591 24.9092 25.68 24.9092 26.8008 24.9092C27.5774 24.9092 28.1139 25.4138 28.1139 26.1106C28.1139 26.8074 27.5694 27.312 26.7928 27.312C24.6792 27.312 22.5736 27.312 20.468 27.312Z" fill="#EF3F42"/>
</g>
</svg>
