<svg width="32" height="45" viewBox="0 0 32 45" fill="none" xmlns="http://www.w3.org/2000/svg">
<g id="Vector">
<path d="M31.0566 40.8272C31.0566 41.8776 31.0566 42.9281 31.0566 43.9785C31.0566 44.7588 30.7807 45.0189 30.0022 44.9989C27.0264 44.9089 24.1097 44.5087 21.2128 43.7084C18.5621 42.9781 15.8228 42.5779 13.1229 42.0177C12.0193 41.7876 10.9059 41.5375 9.82195 41.2374C9.45736 41.1373 9.08293 40.9172 8.82673 40.6471C7.81181 39.5567 6.64908 38.6763 5.32869 38.006C4.6882 37.6759 4.36303 37.1957 4.21523 36.4754C3.85064 34.6646 3.42693 32.8739 3.00323 31.0731C2.80615 30.2228 3.08206 29.7926 3.92947 29.7226C4.6882 29.6525 5.35825 29.9027 5.80166 30.5129C6.1761 31.0431 6.53083 31.6334 6.71805 32.2636C7.54576 35.0948 9.51649 36.5554 12.2657 36.9456C14.1773 37.2257 16.1086 37.0856 17.9315 36.3153C18.3355 36.1453 18.7395 35.9352 19.1041 35.6851C20.7004 34.6146 21.2817 33.204 20.8679 31.3032C20.5821 29.9927 20.6314 28.7222 21.2325 27.5017C21.6562 26.6513 22.2671 26.001 23.1736 25.6809C23.8141 25.4508 24.228 25.7209 24.3068 26.4112C24.425 27.5517 24.5433 28.7022 24.6714 29.8426C24.7601 30.663 25.1345 31.3433 25.6371 31.9835C26.2184 32.7338 26.7702 33.5242 27.2432 34.3545C27.8738 35.455 28.8296 36.0552 29.9727 36.4154C31.0073 36.7455 31.0664 36.8055 31.0664 37.916C31.0566 38.8864 31.0566 39.8568 31.0566 40.8272Z" fill="#EF3F42"/>
<path d="M3.36781 17.7876C3.57474 16.5671 3.80137 15.2466 4.01815 13.906C4.31376 12.0552 4.50098 12.3654 3.11162 11.0048C2.22479 10.1344 1.34782 9.25406 0.460988 8.3937C0.11611 8.05356 -0.10067 7.68341 0.0471347 7.1932C0.194939 6.703 0.579232 6.53293 1.06206 6.4629C2.58938 6.25281 4.11669 6.00271 5.644 5.79262C6.16625 5.72259 6.51113 5.48249 6.73776 4.99229C7.40781 3.5817 8.10742 2.18112 8.77746 0.780534C8.98439 0.340351 9.26029 0.0102133 9.76283 0.000209095C10.2949 -0.00979507 10.5708 0.340351 10.7876 0.800542C11.4478 2.18112 12.1277 3.54168 12.778 4.92226C13.0342 5.46248 13.3988 5.72259 13.9802 5.79262C15.5272 5.9927 17.0644 6.24281 18.6114 6.4729C19.0351 6.53293 19.3504 6.74302 19.4982 7.16319C19.646 7.60337 19.5081 7.97353 19.1829 8.29366C18.0497 9.40412 16.9363 10.5346 15.7933 11.6351C15.3991 12.0152 15.271 12.4254 15.3696 12.9756C15.6652 14.5263 15.9016 16.0969 16.1677 17.6476C16.2465 18.0877 16.1677 18.4879 15.7933 18.768C15.4188 19.0481 15.0345 19.0281 14.6404 18.808C13.2806 18.0777 11.9011 17.3674 10.5511 16.6171C9.99932 16.307 9.52634 16.317 8.98439 16.6271C7.63444 17.3774 6.26478 18.0977 4.89513 18.808C4.09698 19.2482 3.33825 18.778 3.36781 17.7876Z" fill="#EF3F42"/>
<path d="M21.3014 21.179C21.4492 20.3287 21.5872 19.3783 21.7843 18.4379C21.9124 17.8376 21.7941 17.3974 21.3212 16.9773C20.6511 16.387 20.0205 15.7568 19.4194 15.0965C19.2322 14.8964 19.0647 14.5062 19.1336 14.2862C19.2026 14.0661 19.5672 13.866 19.8333 13.806C20.7496 13.6259 21.6759 13.4958 22.6021 13.3858C23.085 13.3258 23.4003 13.1157 23.6072 12.6455C23.9915 11.7751 24.4053 10.9248 24.8586 10.0944C24.9867 9.85431 25.2922 9.56419 25.5188 9.55418C25.7454 9.55418 26.0608 9.8343 26.1889 10.0744C26.6618 10.9448 27.0855 11.8551 27.5092 12.7555C27.6768 13.1057 27.9034 13.2957 28.2877 13.3458C29.2829 13.4758 30.2683 13.6059 31.2536 13.7959C31.5 13.846 31.8054 14.0361 31.9335 14.2561C32.1109 14.5563 31.904 14.8464 31.6576 15.0865C30.9383 15.7868 30.2288 16.5171 29.5095 17.2174C29.2435 17.4775 29.1647 17.7576 29.2336 18.1177C29.411 19.1182 29.5982 20.1186 29.7362 21.119C29.7657 21.3791 29.677 21.7593 29.4997 21.8993C29.3223 22.0294 28.9282 22.0094 28.6917 21.9093C27.8344 21.4992 26.987 21.049 26.1593 20.5788C25.7257 20.3287 25.3611 20.3187 24.9177 20.5788C24.0605 21.069 23.1835 21.5292 22.3065 21.9794C21.735 22.2495 21.2719 21.9193 21.3014 21.179Z" fill="#EF3F42"/>
<path d="M8.33405 30.763C8.39317 30.0627 8.44244 29.3724 8.51141 28.6721C8.60995 27.6517 9.46722 27.2315 10.3343 27.7618C10.9945 28.1719 11.2901 28.8222 11.3591 29.5525C11.4182 30.1928 11.4182 30.8531 11.3493 31.4933C11.2409 32.6238 11.369 33.7142 11.7336 34.7847C11.7828 34.9247 11.7533 35.0948 11.7631 35.2549C11.5956 35.2549 11.3985 35.3149 11.2606 35.2349C10.6102 34.8647 9.92049 34.5146 9.34897 34.0444C8.31434 33.204 8.18624 32.0135 8.33405 30.763Z" fill="#EF3F42"/>
<path d="M13.0539 32.9039C13.1032 32.2136 13.1131 31.5734 13.1919 30.9531C13.32 30.0527 14.0689 29.6926 14.867 30.0927C15.5863 30.4629 15.813 31.1532 15.9608 31.8835C16.0297 32.2536 16.0199 32.6438 16.079 33.024C16.1677 33.5942 16.2465 34.1644 16.3943 34.7147C16.5027 35.1148 16.414 35.3449 16.0199 35.3949C15.3203 35.485 14.6207 35.545 13.9211 35.605C13.4974 35.635 13.2412 35.4249 13.2017 34.9748C13.1623 34.2645 13.1032 33.5542 13.0539 32.9039Z" fill="#EF3F42"/>
</g>
</svg>
