<svg width="52" height="34" viewBox="0 0 52 34" fill="none" xmlns="http://www.w3.org/2000/svg">
<g id="Vector">
<path d="M39.3333 6.09503C39.3333 7.45933 39.3333 8.76299 39.3333 10.1374C39.876 10.1374 40.3982 10.1475 40.9205 10.1374C41.5656 10.1273 42.0673 10.3799 42.436 10.9156C43.89 13.0075 45.3543 15.1095 46.8084 17.2014C47.2077 17.7775 47.3101 18.3737 46.962 19.0003C46.6241 19.6066 46.0711 19.8593 45.385 19.8492C44.873 19.8391 44.3713 19.8492 43.8388 19.8492C43.8388 23.7602 43.8388 27.6307 43.8388 31.572C44.0129 31.572 44.1972 31.572 44.3713 31.572C46.5012 31.572 48.6413 31.572 50.7712 31.572C50.9043 31.572 51.0477 31.5619 51.1808 31.572C51.6723 31.6124 52 31.9358 52 32.3704C52 32.815 51.6723 33.1586 51.1911 33.1789C50.4435 33.1991 49.6858 33.189 48.9383 33.189C37.8075 33.189 26.687 33.189 15.5563 33.189C15.3719 33.189 15.1876 33.189 14.86 33.189C15.3515 32.623 15.7611 32.1177 16.2014 31.6529C16.2833 31.572 16.4881 31.5821 16.6315 31.5821C17.9934 31.5821 19.3655 31.5821 20.7274 31.5821C20.8912 31.5821 21.0653 31.5821 21.2804 31.5821C21.2804 31.3598 21.2804 31.1779 21.2804 31.0061C21.2804 29.2173 21.2701 27.4387 21.2906 25.65C21.2906 25.3872 21.4032 25.0941 21.5568 24.8718C21.9869 24.2452 22.5091 23.6793 22.9187 23.0426C23.2669 22.507 23.7379 22.3049 24.3318 22.2948C25.8473 22.2847 27.3731 22.2443 28.8886 22.3049C30.5679 22.3655 31.9094 23.7804 31.9298 25.4681C31.9503 27.3073 31.9401 29.1365 31.9401 30.9758C31.9401 31.1577 31.9401 31.3396 31.9401 31.5518C35.35 31.5518 38.7189 31.5518 42.139 31.5518C42.139 27.6914 42.139 23.8107 42.139 19.8896C36.4763 19.8896 30.8034 19.8896 25.0179 19.8896C26.6973 16.8073 27.4243 13.6138 26.7997 10.1778C30.4348 10.1778 34.0085 10.1778 37.6334 10.1778C37.6334 8.82363 37.6334 7.50986 37.6334 6.12535C37.4696 6.12535 37.2853 6.12535 37.1112 6.12535C33.3737 6.12535 29.6361 6.12535 25.8985 6.13546C25.5504 6.13546 25.3558 6.04451 25.1818 5.73122C24.3114 4.12438 23.1338 2.74998 21.7207 1.5878C21.6285 1.51706 21.5466 1.43621 21.393 1.30484C21.6388 1.29473 21.7924 1.27452 21.9562 1.27452C28.4585 1.27452 34.9608 1.27452 41.4632 1.27452C42.7841 1.27452 43.4087 1.88087 43.4087 3.18453C43.4087 3.61909 43.419 4.06375 43.4087 4.4983C43.378 5.43815 42.7022 6.10514 41.7396 6.12535C40.9614 6.10514 40.1729 6.09503 39.3333 6.09503ZM30.3017 31.5316C30.3017 29.4801 30.3119 27.469 30.2915 25.4681C30.2812 24.5585 29.5747 23.8915 28.6428 23.8814C27.3424 23.8713 26.0521 23.8713 24.7517 23.8814C23.5741 23.8814 22.929 24.5282 22.929 25.7005C22.929 27.4892 22.929 29.2679 22.929 31.0566C22.929 31.2183 22.9392 31.38 22.9495 31.5619C25.3558 31.5619 27.7008 31.5619 30.0559 31.5619C30.1276 31.5518 30.1891 31.5417 30.3017 31.5316Z" fill="#EF3F42"/>
<path d="M25.4173 12.5729C25.3866 15.1903 24.5981 17.6057 23.1543 19.7582C21.7616 21.8501 20.2257 23.8511 18.6794 25.842C17.0001 28.0046 15.2388 30.1168 13.5185 32.239C12.9349 32.9565 12.4536 32.9666 11.8699 32.239C8.95154 28.5706 5.99222 24.9324 3.15577 21.2135C1.65051 19.2428 0.595798 17.0195 0.165723 14.5335C-0.755866 9.18744 2.24442 3.49782 7.221 1.21388C15.1057 -2.40403 24.0758 2.42659 25.2637 10.9156C25.3354 11.4613 25.3661 12.0171 25.4173 12.5729ZM4.90679 12.9569C4.90679 17.2014 8.37811 20.6374 12.6789 20.6475C16.9694 20.6576 20.4714 17.2115 20.4714 12.9772C20.4714 8.73268 17.0001 5.28656 12.6993 5.28656C8.40883 5.27646 4.91703 8.71246 4.90679 12.9569Z" fill="#EF3F42"/>
<path d="M33.9881 25.9026C33.9881 25.2457 33.9778 24.5888 33.9881 23.932C33.9983 22.9517 34.6741 22.2847 35.6572 22.2645C36.4559 22.2544 37.2648 22.2544 38.0635 22.2645C39.0158 22.2847 39.7019 22.9618 39.7121 23.9016C39.7224 25.2356 39.7224 26.5595 39.7121 27.8935C39.7019 28.8434 39.0158 29.5205 38.0635 29.5306C37.2443 29.5508 36.4251 29.5508 35.606 29.5306C34.6844 29.5104 34.0085 28.8333 33.9881 27.9137C33.9778 27.2467 33.9881 26.5696 33.9881 25.9026Z" fill="#EF3F42"/>
</g>
</svg>
