<svg width="40" height="40" viewBox="0 0 40 40" fill="none" xmlns="http://www.w3.org/2000/svg">
<g id="Vector">
<path d="M23.5924 11.1259C23.0795 11.6047 22.6504 12.0523 22.1689 12.4582C22.0224 12.5831 21.7607 12.6248 21.5514 12.6248C17.1344 12.6352 12.7279 12.6352 8.311 12.6352C8.10167 12.6352 7.9028 12.6352 7.66207 12.6352C7.66207 16.143 7.66207 19.5987 7.66207 23.1065C12.8745 23.1065 18.0869 23.1065 23.3726 23.1065C23.3726 22.3362 23.3621 21.5764 23.383 20.8165C23.3935 20.6292 23.4563 20.4002 23.5819 20.2753C25.0996 18.8493 26.6382 17.4441 28.1768 16.0285C28.2814 15.9348 28.3756 15.8411 28.4908 15.7474C28.5117 15.7266 28.5536 15.7474 28.6478 15.7474C28.6478 15.9244 28.6687 16.1013 28.6478 16.2679C28.3128 18.4121 28.9094 20.2753 30.3852 21.8782C30.5736 22.0864 30.7097 22.4091 30.7097 22.6797C30.7306 28.1235 30.7202 33.5673 30.7202 39.0216C30.7202 39.8543 30.5632 40 29.7572 40C20.1488 40 10.5404 40 0.931987 40C0.167919 40 0.000451631 39.8335 0.000451631 39.0944C0.000451631 29.5183 0.000451631 19.9422 0.000451631 10.3765C-0.0100151 9.62703 0.157452 9.46049 0.92152 9.46049C7.75627 9.46049 14.591 9.46049 21.4362 9.4709C21.6979 9.4709 22.0014 9.61662 22.2003 9.78316C22.6608 10.1787 23.0795 10.6159 23.5924 11.1259ZM7.6516 36.7941C12.9163 36.7941 18.1183 36.7941 23.3307 36.7941C23.3307 33.2967 23.3307 29.8306 23.3307 26.3644C18.0869 26.3644 12.8849 26.3644 7.6516 26.3644C7.6516 29.841 7.6516 33.3071 7.6516 36.7941ZM2.67992 13.3013C2.67992 14.1549 2.67992 14.9772 2.67992 15.7891C3.53819 15.7891 4.34413 15.7891 5.19193 15.7891C5.19193 14.9459 5.19193 14.1445 5.19193 13.3013C4.33366 13.3013 3.50679 13.3013 2.67992 13.3013ZM5.171 36.1591C5.171 35.2848 5.171 34.4729 5.171 33.6714C4.32319 33.6714 3.50679 33.6714 2.67992 33.6714C2.67992 34.5145 2.67992 35.3368 2.67992 36.1591C3.52773 36.1591 4.34413 36.1591 5.171 36.1591ZM25.7485 36.1487C26.5858 36.1487 27.4127 36.1487 28.2396 36.1487C28.2396 35.2952 28.2396 34.4937 28.2396 33.6714C27.3918 33.6714 26.5858 33.6714 25.7485 33.6714C25.7485 34.5041 25.7485 35.316 25.7485 36.1487ZM2.65899 22.5756C3.50679 22.5756 4.33366 22.5756 5.18146 22.5756C5.18146 21.7429 5.18146 20.9414 5.18146 20.1087C4.33366 20.1087 3.50679 20.1087 2.65899 20.1087C2.65899 20.9414 2.65899 21.7429 2.65899 22.5756ZM5.18146 26.8849C4.33366 26.8849 3.50679 26.8849 2.65899 26.8849C2.65899 27.7176 2.65899 28.5191 2.65899 29.3518C3.50679 29.3518 4.33366 29.3518 5.18146 29.3518C5.18146 28.5191 5.18146 27.7176 5.18146 26.8849ZM28.2396 22.586C28.2396 21.7221 28.2396 20.9206 28.2396 20.0983C27.4022 20.0983 26.5858 20.0983 25.7694 20.0983C25.7694 20.9414 25.7694 21.7637 25.7694 22.586C26.6068 22.586 27.4022 22.586 28.2396 22.586ZM28.2396 29.3622C28.2396 28.4982 28.2396 27.6968 28.2396 26.8953C27.3918 26.8953 26.5858 26.8953 25.759 26.8953C25.759 27.728 25.759 28.5295 25.759 29.3622C26.5858 29.3622 27.4022 29.3622 28.2396 29.3622Z" fill="#EF3F42"/>
<path d="M25.9264 11.1571C22.7132 7.96162 19.615 4.89101 16.475 1.77877C17.2496 1.39365 18.0241 1.39365 18.7986 1.52896C20.8187 1.86204 22.4515 2.96538 23.9168 4.30812C25.3508 5.61963 26.7114 7.02482 28.1035 8.38838C28.2396 8.5237 28.3442 8.69024 28.5012 8.88801C29.213 8.1802 29.8619 7.55567 30.469 6.91033C30.5422 6.83747 30.4794 6.58765 30.4271 6.44193C29.6107 3.98545 30.8563 1.29997 33.2427 0.352763C35.6709 -0.604849 38.3923 0.446443 39.5227 2.78843C40.4228 4.65161 40.0251 6.88951 38.5388 8.35715C37.0525 9.8248 34.7708 10.1891 32.8763 9.25231C32.7507 9.18986 32.6356 9.12741 32.5519 9.08577C31.8506 9.78316 31.1807 10.4493 30.5213 11.1051C31.1807 11.7504 31.8715 12.4166 32.6147 13.1348C33.3892 12.6976 34.3312 12.4478 35.3465 12.4895C37.7957 12.5935 39.8785 14.6545 39.9727 17.0798C40.0774 19.6716 38.2457 21.8782 35.7442 22.1905C32.0599 22.6381 29.2653 19.2552 30.4376 15.7682C30.5318 15.4976 30.5108 15.3311 30.291 15.1333C29.6944 14.5712 29.1292 13.9987 28.5222 13.395C27.3394 14.5712 26.1881 15.7266 25.0263 16.882C23.875 18.027 22.6504 19.0887 21.2164 19.8589C20.0128 20.5043 18.7568 20.931 17.3647 20.7333C17.2286 20.7124 17.0926 20.6812 16.9565 20.65C16.81 20.6084 16.6634 20.5459 16.5274 20.4939C19.6464 17.392 22.7446 14.311 25.9264 11.1571ZM35.0534 19.8069C36.4245 19.8173 37.5235 18.7452 37.5549 17.392C37.5759 16.0389 36.4455 14.8939 35.0743 14.8939C33.7241 14.8939 32.6147 15.9972 32.6147 17.34C32.5937 18.7035 33.6823 19.7965 35.0534 19.8069ZM35.0534 7.31627C36.4245 7.31627 37.5235 6.24416 37.5445 4.89101C37.5654 3.53787 36.4245 2.4033 35.0534 2.4033C33.7032 2.4033 32.6042 3.51705 32.5937 4.85979C32.6042 6.22334 33.6927 7.31627 35.0534 7.31627ZM29.0664 11.0947C29.0769 10.7304 28.7734 10.3869 28.3966 10.3661C27.9988 10.3348 27.643 10.6575 27.6325 11.053C27.622 11.4278 27.9151 11.7504 28.3024 11.7817C28.7001 11.8025 29.056 11.4798 29.0664 11.0947Z" fill="#EF3F42"/>
</g>
</svg>
