<svg width="39" height="37" viewBox="0 0 39 37" fill="none" xmlns="http://www.w3.org/2000/svg">
<g id="Vector">
<path d="M15.4628 0C19.8555 0 24.2482 0 28.6502 0C30.0711 0 30.7676 0.684253 30.7676 2.08975C30.7676 10.4765 30.7676 18.8539 30.7676 27.2407C30.7676 28.5537 30.0525 29.2842 28.7431 29.2842C19.8648 29.2842 10.9772 29.2934 2.09885 29.2842C0.733669 29.2842 0 28.5352 0 27.1852C0 18.817 0 10.4487 0 2.0805C0 0.730486 0.733668 0 2.08956 0C6.5473 0 11.005 0 15.4628 0ZM3.77979 3.68942C3.77979 11.022 3.77979 18.3084 3.77979 25.5948C5.29356 25.5948 6.77018 25.5948 8.30253 25.5948C8.30253 24.855 8.30253 24.143 8.30253 23.431C9.55626 23.431 10.745 23.431 11.9894 23.431C11.9894 24.1615 11.9894 24.8643 11.9894 25.5948C17.0323 25.5948 22.0379 25.5948 27.0436 25.5948C27.0436 20.8512 27.0436 16.1262 27.0436 11.3734C26.4121 11.3734 25.8177 11.3734 25.2141 11.3734C25.2141 10.1436 25.2141 8.95077 25.2141 7.71172C25.8456 7.71172 26.4399 7.71172 27.0529 7.71172C27.0529 6.34321 27.0529 5.03018 27.0529 3.68942C19.289 3.68942 11.553 3.68942 3.77979 3.68942Z" fill="#EF3F42"/>
<path d="M32.3743 36.9959C32.3743 35.7291 32.3743 34.5363 32.3743 33.2695C33.3494 33.2695 34.3153 33.2695 35.3182 33.2695C35.3182 32.3633 35.3182 31.5219 35.3182 30.6527C36.5441 30.6527 37.7236 30.6527 38.9587 30.6527C38.968 30.7729 38.9959 30.9023 38.9959 31.0318C38.9959 32.3541 39.0052 33.6763 38.9959 34.9986C38.9866 36.2562 38.2251 36.9866 36.9527 36.9959C35.439 36.9959 33.9252 36.9959 32.3743 36.9959Z" fill="#EF3F42"/>
<path d="M8.30253 30.6434C9.54698 30.6434 10.7264 30.6434 11.9802 30.6434C11.9802 31.5034 11.9802 32.3541 11.9802 33.2602C12.9646 33.2602 13.884 33.2602 14.8405 33.2602C14.8405 34.5178 14.8405 35.7291 14.8405 36.9681C14.7105 36.9774 14.5898 36.9959 14.4783 36.9959C13.0667 36.9959 11.6644 37.0051 10.2528 36.9959C9.11049 36.9866 8.3211 36.2192 8.31181 35.0911C8.29324 33.6209 8.30253 32.1599 8.30253 30.6434Z" fill="#EF3F42"/>
<path d="M38.968 13.9717C37.7514 13.9717 36.572 13.9717 35.3368 13.9717C35.3368 13.1303 35.3368 12.2888 35.3368 11.3919C34.3338 11.3919 33.368 11.3919 32.3836 11.3919C32.3836 10.1436 32.3836 8.96001 32.3836 7.73021C32.5507 7.72096 32.6993 7.71172 32.8479 7.71172C34.2038 7.71172 35.569 7.70247 36.9249 7.71172C38.2808 7.72096 38.9866 8.41446 38.9866 9.76447C38.9959 11.022 38.9866 12.2888 38.9866 13.5464C38.9959 13.6758 38.9773 13.8145 38.968 13.9717Z" fill="#EF3F42"/>
<path d="M22.4187 36.9774C20.8028 36.9774 19.224 36.9774 17.6173 36.9774C17.6173 35.7476 17.6173 34.527 17.6173 33.288C19.2147 33.288 20.8028 33.288 22.4187 33.288C22.4187 34.5178 22.4187 35.7291 22.4187 36.9774Z" fill="#EF3F42"/>
<path d="M29.6996 36.9681C28.1766 36.9681 26.7 36.9681 25.1955 36.9681C25.1955 35.7383 25.1955 34.5363 25.1955 33.288C26.7 33.288 28.1859 33.288 29.6996 33.288C29.6996 34.5178 29.6996 35.7291 29.6996 36.9681Z" fill="#EF3F42"/>
<path d="M35.3461 23.579C36.5534 23.579 37.7421 23.579 38.9587 23.579C38.9587 25.0769 38.9587 26.5657 38.9587 28.0636C37.7421 28.0636 36.5627 28.0636 35.3461 28.0636C35.3461 26.5749 35.3461 25.1047 35.3461 23.579Z" fill="#EF3F42"/>
<path d="M35.3461 16.4868C36.5534 16.4868 37.7421 16.4868 38.9587 16.4868C38.9587 17.9385 38.9587 19.3995 38.9587 20.879C37.7607 20.879 36.5627 20.879 35.3461 20.879C35.3461 19.418 35.3461 17.9663 35.3461 16.4868Z" fill="#EF3F42"/>
<path d="M8.31181 13.9625C8.31181 12.409 8.28395 10.9018 8.3211 9.39461C8.33967 8.5809 8.94333 7.82267 9.72343 7.78569C11.4137 7.71171 13.1132 7.7672 14.8405 7.7672C14.8405 8.94152 14.8405 10.1251 14.8405 11.3641C13.9118 11.3641 12.9831 11.3641 11.9987 11.3641C11.9987 12.2611 11.9987 13.0933 11.9987 13.9717C10.745 13.9625 9.55626 13.9625 8.31181 13.9625Z" fill="#EF3F42"/>
<path d="M22.4187 7.73945C22.4187 8.95077 22.4187 10.1251 22.4187 11.3457C20.8213 11.3457 19.224 11.3457 17.608 11.3457C17.608 10.1436 17.608 8.95077 17.608 7.73945C19.2147 7.73945 20.8028 7.73945 22.4187 7.73945Z" fill="#EF3F42"/>
<path d="M8.3211 20.8882C8.3211 19.3995 8.3211 17.9663 8.3211 16.496C9.53769 16.496 10.7357 16.496 11.9616 16.496C11.9616 17.957 11.9616 19.4087 11.9616 20.8882C10.745 20.8882 9.55626 20.8882 8.3211 20.8882Z" fill="#EF3F42"/>
</g>
</svg>
