<svg width="29" height="29" viewBox="0 0 29 29" fill="none" xmlns="http://www.w3.org/2000/svg">
<path fill-rule="evenodd" clip-rule="evenodd" d="M21.1437 17.3923C20.7829 17.2118 19.009 16.339 18.6783 16.2185C18.3477 16.0981 18.1072 16.038 17.8666 16.3991C17.6261 16.7602 16.9346 17.573 16.7242 17.8137C16.5137 18.0545 16.3033 18.0848 15.9425 17.904C15.5817 17.7235 14.4192 17.3425 13.0411 16.1133C11.9686 15.1566 11.2445 13.9751 11.034 13.6139C10.8236 13.2527 11.0116 13.0575 11.1922 12.8776C11.3546 12.716 11.553 12.4562 11.7334 12.2455C11.9138 12.0349 11.9739 11.8843 12.0942 11.6436C12.2144 11.4028 12.1543 11.1922 12.0641 11.0116C11.9739 10.831 11.2524 9.05511 10.9517 8.3326C10.6589 7.62918 10.3614 7.72445 10.14 7.71329C9.92978 7.70287 9.68895 7.70066 9.44851 7.70066C9.20801 7.70066 8.81708 7.79094 8.48635 8.15203C8.15568 8.51323 7.22366 9.38617 7.22366 11.1619C7.22366 12.9379 8.51643 14.6534 8.69683 14.8942C8.87723 15.135 11.2409 18.7792 14.8602 20.3419C15.7209 20.7137 16.393 20.9357 16.917 21.1019C17.7812 21.3766 18.5678 21.3379 19.1894 21.2449C19.8826 21.1414 21.324 20.3722 21.6247 19.5295C21.9253 18.6866 21.9253 17.9642 21.8351 17.8137C21.745 17.6632 21.5045 17.573 21.1437 17.3923ZM14.5607 26.3808H14.5558C12.4022 26.3799 10.29 25.8014 8.44738 24.7079L8.0091 24.4478L3.46686 25.6394L4.67925 21.2106L4.39395 20.7565C3.19255 18.8458 2.558 16.6373 2.55897 14.3696C2.56163 7.75254 7.94549 2.36913 14.5654 2.36913C17.771 2.37021 20.7843 3.62021 23.0502 5.88873C25.3162 8.15718 26.5633 11.1725 26.562 14.3793C26.5593 20.9968 21.1755 26.3808 14.5607 26.3808ZM24.7748 4.16498C22.0486 1.4357 18.4232 -0.0680552 14.5605 -0.0696411C6.60169 -0.0696411 0.124213 6.40744 0.120984 14.3687C0.119965 16.9137 0.784813 19.3976 2.04846 21.5874L0 29.0697L7.65447 27.0618C9.76354 28.2122 12.1381 28.8185 14.5548 28.8193H14.5607C22.5187 28.8193 28.9967 22.3416 29 14.3802C29.0015 10.522 27.5009 6.89427 24.7748 4.16498Z" fill="#EF3F42"/>
</svg>
